<svg width="705" height="87" viewBox="0 0 705 87" fill="none" xmlns="http://www.w3.org/2000/svg">
<path d="M0.192 35.2C0.192 55.704 10.488 66.88 29.232 66.88C44.808 66.88 54.488 59.136 55.632 45.76H45.864C44.896 53.592 39 57.904 29.32 57.904C16.384 57.904 9.696 50.16 9.696 35.2C9.696 20.152 16.296 12.496 29.232 12.496C39 12.496 44.896 16.808 45.864 24.64H55.632C54.488 11.176 44.896 3.52 29.232 3.52C10.488 3.52 0.192 14.696 0.192 35.2ZM85.409 66.88C99.489 66.88 107.145 58.608 107.145 43.56C107.145 28.512 99.489 20.24 85.409 20.24C71.329 20.24 63.673 28.512 63.673 43.56C63.673 58.608 71.329 66.88 85.409 66.88ZM71.945 43.56C71.945 33.264 76.345 28.248 85.409 28.248C94.473 28.248 98.873 33.264 98.873 43.56C98.873 53.856 94.473 58.872 85.409 58.872C76.345 58.872 71.945 53.856 71.945 43.56ZM125.902 66V41.008C125.902 33.528 130.83 28.6 138.574 28.6C144.91 28.6 147.638 31.944 147.638 39.072V66H156.79V38.368C156.79 26.488 151.246 20.24 140.95 20.24C134.35 20.24 129.158 22.88 125.902 27.984L125.374 21.12H116.75V66H125.902ZM178.324 66V41.008C178.324 33.528 183.252 28.6 190.996 28.6C197.332 28.6 200.06 31.944 200.06 39.072V66H209.212V38.368C209.212 26.488 203.668 20.24 193.372 20.24C186.772 20.24 181.58 22.88 178.324 27.984L177.796 21.12H169.172V66H178.324ZM218.361 43.384C218.361 58.52 226.721 66.88 241.065 66.88C252.593 66.88 259.897 61.424 261.833 51.92H252.945C251.185 56.408 247.225 58.696 241.065 58.696C232.793 58.696 227.953 54.472 227.337 46.904H261.745C261.833 45.32 261.921 43.472 261.921 41.976C261.921 28.248 254.177 20.24 240.449 20.24C226.369 20.24 218.361 28.6 218.361 43.384ZM240.273 28.248C248.369 28.248 253.121 32.648 253.209 39.952H227.248C228.129 32.208 232.529 28.248 240.273 28.248ZM269.837 43.56C269.837 57.2 276.437 66.88 292.453 66.88C305.213 66.88 312.429 60.72 313.133 50.424H304.333C303.541 55.528 299.845 58.432 292.541 58.432C283.037 58.432 278.461 53.416 278.461 43.56C278.461 33.704 283.037 28.688 292.541 28.688C299.845 28.688 303.541 31.592 304.333 36.696H313.133C312.429 26.4 305.213 20.24 292.453 20.24C276.437 20.24 269.837 29.92 269.837 43.56ZM317.833 22V29.04H325.577V53.504C325.577 62.744 329.713 66.88 338.425 66.88C341.329 66.88 344.321 66.44 346.257 65.736V57.728C344.761 58.168 342.649 58.52 340.801 58.52C336.313 58.52 334.817 56.496 334.817 52.448V29.04H346.345V21.12H334.817V8.184H327.777L325.577 21.12L317.833 22ZM372.143 4.4L395.375 66H406.111L429.431 4.4H419.047L401.007 52.888H400.567L382.527 4.4H372.143ZM446.449 66V21.12H437.297V66H446.449ZM435.889 6.51199C435.889 10.384 437.825 12.232 441.873 12.232C445.921 12.232 447.945 10.384 447.945 6.51199C447.945 2.728 445.921 0.879999 441.873 0.879999C437.825 0.879999 435.889 2.728 435.889 6.51199ZM459.297 1.76V54.384C459.297 62.744 462.993 66.88 470.385 66.88C472.937 66.88 475.841 66.352 477.953 65.56V57.728C476.369 58.168 474.873 58.344 473.553 58.344C469.945 58.344 468.537 56.672 468.537 52.976V1.76H459.297ZM485.336 1.76V54.384C485.336 62.744 489.032 66.88 496.424 66.88C498.976 66.88 501.88 66.352 503.992 65.56V57.728C502.408 58.168 500.912 58.344 499.592 58.344C495.984 58.344 494.576 56.672 494.576 52.976V1.76H485.336ZM508.555 52.712C508.555 61.6 514.627 66.88 524.131 66.88C531.259 66.88 536.979 63.976 540.147 59.488C541.291 64.152 543.931 66.528 548.859 66.528C550.971 66.528 552.995 66.176 554.843 65.384V57.816C553.787 58.168 552.643 58.344 551.587 58.344C549.211 58.344 548.419 57.376 548.419 54.56V35.552C548.419 25.96 541.203 20.24 529.323 20.24C517.443 20.24 510.315 25.872 510.315 35.464H518.939C519.027 30.888 522.811 28.424 529.147 28.424C535.571 28.424 539.531 30.888 539.531 35.376V39.336H524.043C514.187 39.336 508.555 44.176 508.555 52.712ZM517.179 52.536C517.179 48.488 519.907 46.112 524.747 46.112H539.531V48.928C539.531 55.088 534.163 59.312 526.243 59.312C520.259 59.312 517.179 56.848 517.179 52.536ZM579.253 66.792C585.941 66.792 591.309 64.24 594.477 59.488V65.912C594.477 74.096 590.253 78.056 581.717 78.056C574.765 78.056 570.629 75.416 569.925 70.488H561.037C562.005 80.696 569.309 86.24 581.805 86.24C595.885 86.24 603.541 79.2 603.541 65.912V21.12H594.829L594.565 27.544C591.309 22.792 585.941 20.24 579.253 20.24C566.757 20.24 559.189 29.04 559.189 43.472C559.189 57.904 566.669 66.792 579.253 66.792ZM567.901 43.56C567.901 33.528 572.125 28.688 580.837 28.688C589.725 28.688 594.477 33.792 594.477 43.648C594.477 53.416 589.725 58.432 580.837 58.432C572.125 58.432 567.901 53.592 567.901 43.56ZM613.071 43.384C613.071 58.52 621.431 66.88 635.775 66.88C647.303 66.88 654.607 61.424 656.543 51.92H647.655C645.895 56.408 641.935 58.696 635.775 58.696C627.503 58.696 622.663 54.472 622.047 46.904H656.455C656.543 45.32 656.631 43.472 656.631 41.976C656.631 28.248 648.887 20.24 635.159 20.24C621.079 20.24 613.071 28.6 613.071 43.384ZM634.983 28.248C643.079 28.248 647.831 32.648 647.919 39.952H621.959C622.839 32.208 627.239 28.248 634.983 28.248ZM663.838 51.128C664.19 61.424 671.494 66.88 684.518 66.88C697.278 66.88 704.846 61.6 704.846 52.536C704.846 34.32 674.046 42.416 674.046 33.176C674.046 29.832 678.094 27.896 684.078 27.896C690.678 27.896 694.55 30.272 694.99 34.848H703.79C703.79 25.608 696.486 20.24 684.078 20.24C672.11 20.24 664.982 25.168 664.982 33.44C665.07 50.512 695.694 42.24 695.694 52.888C695.694 56.848 691.558 59.224 684.518 59.224C677.126 59.224 673.254 56.584 672.726 51.128H663.838Z" fill="black"/>
</svg>
